<svg width="24" height="24" viewBox="0 0 24 24" fill="none" xmlns="http://www.w3.org/2000/svg">
<path fill-rule="evenodd" clip-rule="evenodd" d="M21.2 3.1001H21.2001V5.14454H21.2V11.2779H19.1555V7.18907H17.1112V5.14463H19.1555V5.14454H13.0223V3.1001H19.1555H21.2ZM10.9778 5.14463H4.84449H2.80005V7.18907V19.4556V21.5V21.5002H4.84449V21.5H17.1112V21.5001H19.1556V13.3224H17.1112V19.4556H4.84449V7.18907H10.9778V5.14463ZM8.93345 13.3224H10.9779V15.3668H8.93345V13.3224ZM13.0222 11.2778H10.9778V13.3223H13.0222V11.2778ZM13.0223 9.2335H15.0668V11.2779H13.0223V9.2335ZM17.1111 7.18896H15.0667V9.23341H17.1111V7.18896Z" fill="#FFED6C"/>
</svg>
