<svg width="31" height="31" viewBox="0 0 31 31" fill="none" xmlns="http://www.w3.org/2000/svg">
<path d="M24.8905 6.88448C23.1726 6.08365 21.3126 5.5024 19.3751 5.16656C19.3581 5.16602 19.3412 5.16921 19.3256 5.1759C19.3099 5.1826 19.296 5.19264 19.2847 5.20531C19.0522 5.63156 18.7809 6.18698 18.6001 6.61323C16.545 6.30323 14.4551 6.30323 12.4001 6.61323C12.2192 6.17406 11.948 5.63156 11.7026 5.20531C11.6897 5.17948 11.6509 5.16656 11.6122 5.16656C9.67465 5.5024 7.82757 6.08365 6.09674 6.88448C6.08382 6.88448 6.0709 6.8974 6.05799 6.91031C2.54465 12.1674 1.5759 17.2824 2.05382 22.3457C2.05382 22.3716 2.06674 22.3974 2.09257 22.4103C4.41757 24.1153 6.65215 25.1486 8.8609 25.8332C8.89965 25.8461 8.9384 25.8332 8.95132 25.8074C9.46799 25.097 9.93299 24.3478 10.3334 23.5599C10.3592 23.5082 10.3334 23.4566 10.2817 23.4436C9.54549 23.1595 8.84799 22.8236 8.1634 22.4361C8.11174 22.4103 8.11174 22.3328 8.15049 22.2941C8.29257 22.1907 8.43465 22.0745 8.57674 21.9711C8.60257 21.9453 8.64132 21.9453 8.66715 21.9582C13.1105 23.9861 17.9026 23.9861 22.2942 21.9582C22.3201 21.9453 22.3588 21.9453 22.3847 21.9711C22.5267 22.0874 22.6688 22.1907 22.8109 22.307C22.8626 22.3457 22.8626 22.4232 22.798 22.4491C22.1263 22.8495 21.4159 23.1724 20.6797 23.4566C20.628 23.4695 20.6151 23.5341 20.628 23.5728C21.0413 24.3607 21.5063 25.1099 22.0101 25.8203C22.0488 25.8332 22.0876 25.8461 22.1263 25.8332C24.348 25.1486 26.5826 24.1153 28.9076 22.4103C28.9334 22.3974 28.9463 22.3716 28.9463 22.3457C29.5147 16.4945 28.0034 11.4182 24.9422 6.91031C24.9292 6.8974 24.9163 6.88448 24.8905 6.88448ZM11.0051 19.2586C9.67465 19.2586 8.56382 18.0316 8.56382 16.5203C8.56382 15.0091 9.64882 13.782 11.0051 13.782C12.3742 13.782 13.4592 15.022 13.4463 16.5203C13.4463 18.0316 12.3613 19.2586 11.0051 19.2586ZM20.008 19.2586C18.6776 19.2586 17.5667 18.0316 17.5667 16.5203C17.5667 15.0091 18.6517 13.782 20.008 13.782C21.3772 13.782 22.4622 15.022 22.4492 16.5203C22.4492 18.0316 21.3772 19.2586 20.008 19.2586Z" fill="#FFED6C"/>
</svg>
