<svg width="31" height="31" viewBox="0 0 31 31" fill="none" xmlns="http://www.w3.org/2000/svg">
<g clip-path="url(#clip0_830_15607)">
<path fill-rule="evenodd" clip-rule="evenodd" d="M25.2008 5.31421C25.5111 5.18364 25.8506 5.13861 26.1842 5.1838C26.5177 5.22899 26.833 5.36275 27.0973 5.57117C27.3616 5.77958 27.5652 6.05502 27.6869 6.36882C27.8087 6.68263 27.844 7.02332 27.7894 7.35544L24.9422 24.6255C24.6661 26.2914 22.8382 27.2468 21.3105 26.417C20.0325 25.7227 18.1344 24.6532 16.4271 23.5371C15.5734 22.9785 12.9585 21.1896 13.2799 19.9167C13.556 18.8283 17.9498 14.7383 20.4606 12.3066C21.446 11.3513 20.9966 10.8002 19.8329 11.6789C16.9418 13.8608 12.3032 17.1787 10.7691 18.1127C9.41584 18.9362 8.71032 19.0768 7.86671 18.9362C6.32763 18.6801 4.90028 18.2834 3.7353 17.8001C2.16106 17.1473 2.23764 14.9831 3.73404 14.3529L25.2008 5.31421Z" fill="#FFED6C"/>
</g>
<defs>
<clipPath id="clip0_830_15607">
<rect width="31" height="31" fill="white"/>
</clipPath>
</defs>
</svg>
