<svg xmlns="http://www.w3.org/2000/svg" width="43" height="42" viewBox="0 0 43 42" fill="none">
    <path d="M3.5333 13.9185C3.21025 13.9185 2.89447 14.0142 2.62587 14.1937C2.35727 14.3732 2.14792 14.6283 2.02429 14.9267C1.90067 15.2252 1.86833 15.5536 1.93135 15.8704C1.99437 16.1873 2.14993 16.4783 2.37836 16.7067C2.60678 16.9352 2.89781 17.0907 3.21465 17.1537C3.53149 17.2168 3.85989 17.1844 4.15835 17.0608C4.4568 16.9372 4.71189 16.7278 4.89136 16.4592C5.07084 16.1906 5.16663 15.8748 5.16663 15.5518C5.16663 15.1186 4.99455 14.7032 4.68824 14.3968C4.38193 14.0905 3.96648 13.9185 3.5333 13.9185Z" fill="#FFED6C"/>
    <path d="M39.9681 17.1735C40.8637 17.1735 41.5898 16.4475 41.5898 15.5518C41.5898 14.6562 40.8637 13.9302 39.9681 13.9302C39.0725 13.9302 38.3464 14.6562 38.3464 15.5518C38.3464 16.4475 39.0725 17.1735 39.9681 17.1735Z" fill="#FFED6C"/>
    <path d="M21.7566 7.45472C22.0778 7.45703 22.3925 7.36389 22.6607 7.18711C22.9289 7.01033 23.1386 6.75787 23.2631 6.46176C23.3877 6.16565 23.4215 5.83923 23.3602 5.52389C23.299 5.20855 23.1454 4.91851 22.9191 4.69055C22.6928 4.46259 22.4039 4.30697 22.089 4.24345C21.7741 4.17993 21.4474 4.21135 21.1504 4.33374C20.8534 4.45613 20.5995 4.66397 20.4208 4.9309C20.242 5.19783 20.1466 5.51182 20.1466 5.83305C20.1466 6.26113 20.3159 6.67185 20.6175 6.97564C20.9191 7.27943 21.3286 7.45164 21.7566 7.45472ZM37.4016 18.7831C35.9439 19.1181 34.5247 19.6029 33.1666 20.2297C31.5097 21.0247 29.9448 21.9989 28.5 23.1347C27.4763 21.8769 26.5922 20.5117 25.8633 19.0631C24.7 16.5782 23.7175 14.0126 22.9233 11.3864C22.8484 11.1384 22.6931 10.9224 22.4818 10.7724C22.2706 10.6224 22.0155 10.547 21.7566 10.5581C21.4978 10.547 21.2426 10.6224 21.0314 10.7724C20.8202 10.9224 20.6648 11.1384 20.59 11.3864C19.7977 14.0133 18.8151 16.579 17.65 19.0631C16.9245 20.5101 16.0401 21.8718 15.0133 23.1231C13.5617 22.0003 11.9978 21.0307 10.3466 20.2297C9.02153 19.6112 7.63801 19.1266 6.21662 18.7831C6.00559 18.7324 5.78461 18.7415 5.57851 18.8095C5.37241 18.8776 5.18936 19.0017 5.04996 19.1681C4.90809 19.3399 4.81841 19.5488 4.79154 19.77C4.76466 19.9913 4.8017 20.2156 4.89829 20.4164C7.11146 25.4487 8.67945 30.7407 9.56496 36.1664C9.61218 36.4403 9.75566 36.6884 9.96955 36.8659C10.1834 37.0434 10.4537 37.1388 10.7316 37.1347H32.8983C33.1762 37.1388 33.4465 37.0434 33.6604 36.8659C33.8743 36.6884 34.0177 36.4403 34.065 36.1664C34.9505 30.7407 36.5185 25.4487 38.7316 20.4164C38.8282 20.2156 38.8653 19.9913 38.8384 19.77C38.8115 19.5488 38.7218 19.3399 38.58 19.1681C38.4396 18.9996 38.2546 18.8742 38.0462 18.8061C37.8377 18.738 37.6144 18.73 37.4016 18.7831ZM13.4266 33.3081C13.17 33.3104 12.9185 33.2364 12.704 33.0955C12.4895 32.9546 12.3217 32.7532 12.2219 32.5168C12.1221 32.2803 12.0948 32.0196 12.1434 31.7676C12.1921 31.5157 12.3145 31.2838 12.4951 31.1016C12.6758 30.9193 12.9065 30.7948 13.158 30.7439C13.4095 30.6929 13.6705 30.7179 13.9078 30.8156C14.1451 30.9132 14.3481 31.0792 14.4909 31.2924C14.6337 31.5056 14.7099 31.7564 14.71 32.0131C14.71 32.3545 14.5751 32.6821 14.3348 32.9247C14.0945 33.1672 13.7681 33.305 13.4266 33.3081ZM21.7683 33.3081C21.4475 33.2775 21.1497 33.1285 20.9329 32.8901C20.7162 32.6517 20.5961 32.3411 20.5961 32.0189C20.5961 31.6967 20.7162 31.3861 20.9329 31.1477C21.1497 30.9093 21.4475 30.7603 21.7683 30.7297C22.089 30.7603 22.3869 30.9093 22.6036 31.1477C22.8204 31.3861 22.9405 31.6967 22.9405 32.0189C22.9405 32.3411 22.8204 32.6517 22.6036 32.8901C22.3869 33.1285 22.089 33.2775 21.7683 33.3081ZM30.1216 33.3081C29.865 33.3104 29.6135 33.2364 29.399 33.0955C29.1845 32.9546 29.0167 32.7532 28.9169 32.5168C28.8171 32.2803 28.7898 32.0196 28.8384 31.7676C28.8871 31.5157 29.0095 31.2838 29.1901 31.1016C29.3708 30.9193 29.6015 30.7948 29.853 30.7439C30.1045 30.6929 30.3655 30.7179 30.6028 30.8156C30.8401 30.9132 31.0431 31.0792 31.1859 31.2924C31.3287 31.5056 31.4049 31.7564 31.405 32.0131C31.405 32.3545 31.2701 32.6821 31.0298 32.9247C30.7895 33.1672 30.4631 33.305 30.1216 33.3081Z" fill="#FFED6C"/>
</svg>
