<?xml version="1.0" standalone="no"?>
<!DOCTYPE svg PUBLIC "-//W3C//DTD SVG 20010904//EN"
 "http://www.w3.org/TR/2001/REC-SVG-20010904/DTD/svg10.dtd">
<svg version="1.0" xmlns="http://www.w3.org/2000/svg"
 width="700.000000pt" height="700.000000pt" viewBox="0 0 700.000000 700.000000"
 preserveAspectRatio="xMidYMid meet">
<metadata>
Created by potrace 1.14, written by Peter Selinger 2001-2017
</metadata>
<g transform="translate(0.000000,700.000000) scale(0.100000,-0.100000)"
fill="#000000" stroke="none">
<path d="M1136 6443 c0 -307 -1 -563 -3 -568 -2 -7 -193 -10 -568 -10 l-565 0
0 -2365 0 -2365 553 0 c303 1 559 -1 567 -3 13 -3 15 -72 15 -565 l0 -562
2365 -3 2365 -2 0 552 c-1 304 1 560 3 568 3 13 72 15 565 15 l562 0 3 2365 2
2365 -565 0 c-372 0 -565 3 -566 10 -1 5 -2 260 -3 565 l-1 555 -2365 3 -2365
2 1 -557z m3594 -2943 l0 -1230 -1230 0 -1230 0 0 1230 0 1230 1230 0 1230 0
0 -1230z"/>
</g>
</svg>
