<svg width="30" height="30" viewBox="0 0 30 30" fill="none" xmlns="http://www.w3.org/2000/svg">
<path d="M19.25 10.9057C19.25 9.67706 21.0397 9.35141 21.5145 10.501C22.6631 13.2817 23.5 15.7693 23.5 17.1142C23.5 21.4004 19.6944 24.875 15 24.875C10.3056 24.875 6.5 21.4004 6.5 17.1142C6.5 15.6693 7.46598 12.9054 8.74665 9.8761C10.4056 5.95193 11.2351 3.98984 12.259 3.88416C12.5867 3.85034 12.9441 3.91114 13.2364 4.05041C14.15 4.48566 14.15 6.62566 14.15 10.9057C14.15 12.1915 15.2917 13.2339 16.7 13.2339C18.1083 13.2339 19.25 12.1915 19.25 10.9057Z" stroke="#FFED6C" stroke-width="2"/>
</svg>
