<svg width="186" height="100" viewBox="0 0 186 100" fill="none" xmlns="http://www.w3.org/2000/svg">
<path d="M95.3931 40.7213V38.623H99.8546V39.5861L100.61 40.3773H106.169L106.924 39.5861V38.107L106.135 37.2814H98.7564L95.5303 34.0134V30.2638L98.7907 26.9615H107.714L111.043 30.3326V32.431H106.581V31.4678L105.826 30.6766H100.747L99.9918 31.4678V32.8094L100.781 33.635H108.16L111.386 36.903V40.7901L108.126 44.0925H98.722L95.3931 40.7213Z" fill="url(#paint0_linear_144_3882)"/>
<path d="M114.308 40.5837V30.539L117.842 26.9615H127.486L131.055 30.539V37.0406H118.838V39.2421L119.936 40.3773H125.53L126.559 39.3109V38.4166H131.021V40.6525L127.623 44.0925H117.774L114.308 40.5837ZM126.525 33.8758V31.8806L125.358 30.6766H120.005L118.838 31.8806V33.8758H126.525Z" fill="url(#paint1_linear_144_3882)"/>
<path d="M151.201 26.9615V48.014L147.494 51.6948H138.194L135.002 48.53V46.1909H139.532V47.2228L140.184 47.9108H145.504L146.671 46.7069V41.8565L144.303 44.0925H137.851L134.316 40.5149V30.539L137.851 26.9615H144.577L147.014 29.3007V26.9615H151.201ZM146.671 32.9126L144.337 30.8142H140.15L138.846 32.1558V38.8981L140.15 40.2397H143.891L146.671 37.3846V32.9126Z" fill="url(#paint2_linear_144_3882)"/>
<path d="M96.251 55.907H100.438V58.7278L103.218 55.907H107.542L109.876 58.2806L112.21 55.907H118.181L121.853 59.6222V73.038H117.323V60.9637L116.156 59.7598H113.273L111.454 61.5829V73.038H107.062V60.895L105.963 59.7598H103.904L100.781 62.9245V73.038H96.251V55.907Z" fill="url(#paint3_linear_144_3882)"/>
<path d="M125.64 52.3294V50.1279L127.218 48.5455H129.621L131.199 50.1279V52.3294L129.621 53.9118H127.218L125.64 52.3294ZM126.154 55.907H130.685V73.038H126.154V55.907Z" fill="url(#paint4_linear_144_3882)"/>
<path d="M135.162 55.907H139.349V58.7622L142.197 55.907H147.723L151.532 59.7254V73.038H147.002V60.9637L145.835 59.7598H142.952L139.692 63.0621V73.038H135.162V55.907Z" fill="url(#paint5_linear_144_3882)"/>
<path d="M156.681 69.5292V59.7254H153.592V55.907H156.75V50.3343H161.211V55.907H166.428V59.7598H161.211V68.0501L162.378 69.1852H166.428V73.038H160.216L156.681 69.5292Z" fill="url(#paint6_linear_144_3882)"/>
<path d="M71.3304 19.2823H30.3735L27.8137 26.9618L20.1343 29.5216L20.1343 70.4785L27.8137 73.0383L30.3735 80.7177H50.852H71.3304L73.8902 73.0383L81.5696 70.4785V29.5216L73.8902 26.9618L71.3304 19.2823ZM62.3711 61.5192L50.852 65.3589L39.3328 61.5192L35.4931 50L39.3328 38.4809L50.852 34.6412L62.3711 38.4809L66.2108 50L62.3711 61.5192Z" fill="url(#paint7_linear_144_3882)"/>
<defs>
<linearGradient id="paint0_linear_144_3882" x1="131.019" y1="26.9615" x2="166.461" y2="72.9575" gradientUnits="userSpaceOnUse">
<stop offset="0.864583" stop-color="#FFED6C"/>
</linearGradient>
<linearGradient id="paint1_linear_144_3882" x1="131.019" y1="26.9615" x2="166.461" y2="72.9575" gradientUnits="userSpaceOnUse">
<stop offset="0.864583" stop-color="#FFED6C"/>
</linearGradient>
<linearGradient id="paint2_linear_144_3882" x1="131.019" y1="26.9615" x2="166.461" y2="72.9575" gradientUnits="userSpaceOnUse">
<stop offset="0.864583" stop-color="#FFED6C"/>
</linearGradient>
<linearGradient id="paint3_linear_144_3882" x1="131.019" y1="26.9615" x2="166.461" y2="72.9575" gradientUnits="userSpaceOnUse">
<stop offset="0.864583" stop-color="#FFED6C"/>
</linearGradient>
<linearGradient id="paint4_linear_144_3882" x1="131.019" y1="26.9615" x2="166.461" y2="72.9575" gradientUnits="userSpaceOnUse">
<stop offset="0.864583" stop-color="#FFED6C"/>
</linearGradient>
<linearGradient id="paint5_linear_144_3882" x1="131.019" y1="26.9615" x2="166.461" y2="72.9575" gradientUnits="userSpaceOnUse">
<stop offset="0.864583" stop-color="#FFED6C"/>
</linearGradient>
<linearGradient id="paint6_linear_144_3882" x1="131.019" y1="26.9615" x2="166.461" y2="72.9575" gradientUnits="userSpaceOnUse">
<stop offset="0.864583" stop-color="#FFED6C"/>
</linearGradient>
<linearGradient id="paint7_linear_144_3882" x1="50.9455" y1="19.2823" x2="99.1007" y2="59.8189" gradientUnits="userSpaceOnUse">
<stop offset="0.864583" stop-color="#FFED6C"/>
</linearGradient>
</defs>
</svg>
