<svg width="150" height="150" viewBox="0 0 150 150" fill="none" xmlns="http://www.w3.org/2000/svg">
<path d="M54.1667 12.5H20.8333L18.75 18.75L12.5 20.8333L12.5 54.1667L18.75 56.25L20.8333 62.5H37.5H54.1667L56.25 56.25L62.5 54.1667V20.8333L56.25 18.75L54.1667 12.5ZM46.875 46.875L37.5 50L28.125 46.875L25 37.5L28.125 28.125L37.5 25L46.875 28.125L50 37.5L46.875 46.875Z" fill="#302479"/>
<path d="M129.167 12.5H95.8333L93.75 18.75L87.5 20.8333L87.5 54.1667L93.75 56.25L95.8333 62.5H112.5H129.167L131.25 56.25L137.5 54.1667V20.8333L131.25 18.75L129.167 12.5ZM121.875 46.875L112.5 50L103.125 46.875L100 37.5L103.125 28.125L112.5 25L121.875 28.125L125 37.5L121.875 46.875Z" fill="#302479"/>
<path d="M54.1667 87.5H20.8333L18.75 93.75L12.5 95.8333L12.5 129.167L18.75 131.25L20.8333 137.5H37.5H54.1667L56.25 131.25L62.5 129.167V95.8333L56.25 93.75L54.1667 87.5ZM46.875 121.875L37.5 125L28.125 121.875L25 112.5L28.125 103.125L37.5 100L46.875 103.125L50 112.5L46.875 121.875Z" fill="#302479"/>
<path d="M129.167 87.5H95.8333L93.75 93.75L87.5 95.8333L87.5 129.167L93.75 131.25L95.8333 137.5H112.5H129.167L131.25 131.25L137.5 129.167V95.8333L131.25 93.75L129.167 87.5ZM121.875 121.875L112.5 125L103.125 121.875L100 112.5L103.125 103.125L112.5 100L121.875 103.125L125 112.5L121.875 121.875Z" fill="#302479"/>
</svg>
